<?xml version="1.0" encoding="utf-8"?>
<!-- Generator: Adobe Illustrator 16.0.0, SVG Export Plug-In . SVG Version: 6.00 Build 0)  -->
<!DOCTYPE svg PUBLIC "-//W3C//DTD SVG 1.0//EN" "http://www.w3.org/TR/2001/REC-SVG-20010904/DTD/svg10.dtd" [
	<!ENTITY ns_flows "http://ns.adobe.com/Flows/1.0/">
	<!ENTITY ns_extend "http://ns.adobe.com/Extensibility/1.0/">
	<!ENTITY ns_ai "http://ns.adobe.com/AdobeIllustrator/10.0/">
	<!ENTITY ns_graphs "http://ns.adobe.com/Graphs/1.0/">
	<!ENTITY ns_vars "http://ns.adobe.com/Variables/1.0/">
	<!ENTITY ns_imrep "http://ns.adobe.com/ImageReplacement/1.0/">
	<!ENTITY ns_sfw "http://ns.adobe.com/SaveForWeb/1.0/">
	<!ENTITY ns_custom "http://ns.adobe.com/GenericCustomNamespace/1.0/">
	<!ENTITY ns_adobe_xpath "http://ns.adobe.com/XPath/1.0/">
]>
<svg version="1.0" id="Layer_1" xmlns:x="&ns_extend;" xmlns:i="&ns_ai;" xmlns:graph="&ns_graphs;"
	 xmlns="http://www.w3.org/2000/svg" xmlns:xlink="http://www.w3.org/1999/xlink" xmlns:a="http://ns.adobe.com/AdobeSVGViewerExtensions/3.0/"
	 x="0px" y="0px" width="1400px" height="980px" viewBox="0 0 1400 980" enable-background="new 0 0 1400 980" xml:space="preserve"
	>
<metadata>
	<sfw  xmlns="&ns_sfw;">
		<slices></slices>
		<sliceSourceBounds  y="-980" x="0" width="1400" height="980" bottomLeftOrigin="true"></sliceSourceBounds>
		<optimizationSettings>
			<targetSettings  fileFormat="JPEGFormat" targetSettingsID="0">
				
					<JPEGFormat  optimized="true" quality="93" noMatteColor="false" matteColor="#FFFFFF" blurAmount="0" embedICCProfile="false" progressive="true">
					</JPEGFormat>
			</targetSettings>
		</optimizationSettings>
	</sfw>
</metadata>
<rect fill="#6FCBD1" width="1400" height="980"/>
<circle fill="#FCAF1D" stroke="#772424" stroke-width="3" stroke-linejoin="round" stroke-miterlimit="10" cx="704.2" cy="411" r="287.1"/>
<g>
	<path fill="#FBB61D" stroke="#772626" stroke-width="3" stroke-linejoin="round" stroke-miterlimit="10" d="M705,690.5
		c0,14.2-11.5,25.7-25.7,25.7H340.7c-14.2,0-25.7-11.5-25.7-25.7l0,0c0-14.2,11.5-25.7,25.7-25.7h338.6
		C693.5,664.8,705,676.3,705,690.5L705,690.5z"/>
	<path fill="#FBB61D" stroke="#772626" stroke-width="3" stroke-linejoin="round" stroke-miterlimit="10" d="M1034.4,667.7
		c0,12.4-10,22.4-22.4,22.4H716.7c-12.4,0-22.4-10-22.4-22.4l0,0c0-12.4,10-22.4,22.4-22.4H1012
		C1024.4,645.3,1034.4,655.3,1034.4,667.7L1034.4,667.7z"/>
	<g>
		<path fill="#FBB61D" stroke="#772626" stroke-width="3" stroke-linejoin="round" stroke-miterlimit="10" d="M987.1,656.6
			c6.2-1.2,9.3-8.3,9.3-8.3v-7.6h-9v-3.9h3.3v-6.4h-8v-4.7h3v-5.3h-6.1V617h2.4c0-4.6-6.5-5.2-6.5-5.2v-3.2h3
			c0.5-9.3-16.5-12.9-16.5-12.9v-5h3.3v-3.5h4.9c2.6-2,0.3-4.9-6.4-15.6c-6.7-10.8-7.1-31-11.2-55.2c-4.1-24.3-22.5-27.4-22.5-27.4
			v-5h5.3v-5.5h-5.3v-8.6h4.1v-6.5h-5.2v-14.7h-3V429h-2.4v-13.5h-3.6v-13.7h-2.7v-3.3h4.5l-7.3-90.6H914h-1.1h-0.6l-7.3,90.6h4.5
			v3.3h-2.7v13.7h-3.6V429h-2.4v19.6h-3v14.7h-5.2v6.5h4.1v8.6h-5.3v5.5h5.3v5c0,0-18.4,3.2-22.5,27.4c-4.1,24.3-4.6,44.5-11.2,55.2
			c-6.7,10.8-9,13.7-6.4,15.6h4.9v3.5h3.3v5c0,0-17,3.6-16.5,12.9h3v3.2c0,0-6.5,0.6-6.5,5.2h2.4v3.3h-6.1v5.3h3v4.7h-8v6.4h3.3v3.9
			h-9v7.6c0,0,3,7.1,9.3,8.3c0,0-17.9,2.9-20.9,14.4H912h2.8h93.2C1005,659.5,987.1,656.6,987.1,656.6z"/>
		
			<rect x="839.4" y="636.7" fill="#FBB61D" stroke="#772626" stroke-width="3" stroke-linejoin="round" stroke-miterlimit="10"  a:adobe-blending-mode="multiply" width="74.6" height="4.1"/>
		
			<path fill="#FBB61D" stroke="#772626" stroke-width="3" stroke-linejoin="round" stroke-miterlimit="10"  a:adobe-blending-mode="multiply" d="
			M832.4,651.4c1.5,2.1,4,4.5,7.4,5.2c0,0-1.1,0.2-2.8,0.6h77v-5.8H832.4z"/>
		
			<rect x="844.1" y="625.6" fill="#FBB61D" stroke="#772626" stroke-width="3" stroke-linejoin="round" stroke-miterlimit="10"  a:adobe-blending-mode="multiply" width="69.9" height="5"/>
		
			<rect x="847.2" y="617" fill="#FBB61D" stroke="#772626" stroke-width="3" stroke-linejoin="round" stroke-miterlimit="10"  a:adobe-blending-mode="multiply" width="66.8" height="3.5"/>
		
			<rect x="864.8" y="590.7" fill="#FBB61D" stroke="#772626" stroke-width="3" stroke-linejoin="round" stroke-miterlimit="10"  a:adobe-blending-mode="multiply" width="49.2" height="5.3"/>
		
			<path fill="#FBB61D" stroke="#772626" stroke-width="3" stroke-linejoin="round" stroke-miterlimit="10"  a:adobe-blending-mode="multiply" d="
			M914,491.8v-2.4h-19.2c-1.3,0.4-3.1,1.2-5.2,2.4H914z"/>
		<g  a:adobe-blending-mode="multiply">
			
				<rect x="914" y="636.7" fill="#FBB61D" stroke="#772626" stroke-width="3" stroke-linejoin="round" stroke-miterlimit="10"  a:adobe-blending-mode="normal" width="74.6" height="4.1"/>
			
				<path fill="#FBB61D" stroke="#772626" stroke-width="3" stroke-linejoin="round" stroke-miterlimit="10"  a:adobe-blending-mode="normal" d="
				M995.6,651.4c-1.5,2.1-4,4.5-7.4,5.2c0,0,1.1,0.2,2.8,0.6h-77v-5.8H995.6z"/>
			
				<rect x="914" y="625.6" fill="#FBB61D" stroke="#772626" stroke-width="3" stroke-linejoin="round" stroke-miterlimit="10"  a:adobe-blending-mode="normal" width="69.9" height="5"/>
			
				<rect x="914" y="617" fill="#FBB61D" stroke="#772626" stroke-width="3" stroke-linejoin="round" stroke-miterlimit="10"  a:adobe-blending-mode="normal" width="66.8" height="3.5"/>
			
				<rect x="914" y="590.7" fill="#FBB61D" stroke="#772626" stroke-width="3" stroke-linejoin="round" stroke-miterlimit="10"  a:adobe-blending-mode="normal" width="49.2" height="5.3"/>
			
				<path fill="#FBB61D" stroke="#772626" stroke-width="3" stroke-linejoin="round" stroke-miterlimit="10"  a:adobe-blending-mode="normal" d="
				M914,491.8v-2.4h19.2c1.3,0.4,3.1,1.2,5.2,2.4H914z"/>
		</g>
		<g  a:adobe-blending-mode="multiply">
			
				<polygon fill="#FBB61D" stroke="#772626" stroke-width="3" stroke-linejoin="round" stroke-miterlimit="10"  a:adobe-blending-mode="normal" points="
				930.2,484.4 930.2,483.9 935.5,483.9 935.5,480.8 891.3,480.8 891.3,483.9 896.6,483.9 896.6,484.4 			"/>
			
				<polygon fill="#FBB61D" stroke="#772626" stroke-width="3" stroke-linejoin="round" stroke-miterlimit="10"  a:adobe-blending-mode="normal" points="
				930.2,470.7 930.2,469.8 934.3,469.8 934.3,467.1 892.5,467.1 892.5,469.8 896.6,469.8 896.6,470.7 			"/>
			
				<polygon fill="#FBB61D" stroke="#772626" stroke-width="3" stroke-linejoin="round" stroke-miterlimit="10"  a:adobe-blending-mode="normal" points="
				926.1,429.9 926.1,429 923.7,429 923.7,426.4 903.2,426.4 903.2,429 900.7,429 900.7,429.9 			"/>
			
				<polygon fill="#FBB61D" stroke="#772626" stroke-width="3" stroke-linejoin="round" stroke-miterlimit="10"  a:adobe-blending-mode="normal" points="
				934.3,463.3 934.3,463.3 929.2,463.3 929.2,459.7 897.7,459.7 897.7,463.3 892.5,463.3 892.5,463.3 			"/>
			
				<polygon fill="#FBB61D" stroke="#772626" stroke-width="3" stroke-linejoin="round" stroke-miterlimit="10"  a:adobe-blending-mode="normal" points="
				929.2,449.1 929.2,448.5 926.1,448.5 926.1,445.5 900.7,445.5 900.7,448.5 897.7,448.5 897.7,449.1 			"/>
		</g>
	</g>
	<g>
		<path fill="#FBB61D" stroke="#772626" stroke-width="3" stroke-linejoin="round" stroke-miterlimit="10" d="M630.5,663.8
			c10.6-2.1,15.7-14.2,15.7-14.2v-12.9H631V630h5.7v-10.8H623v-8h5.2v-9h-10.3v-5.7h4.1c0-7.7-11.1-8.8-11.1-8.8v-5.4h5.2
			c0.8-15.7-28.1-21.9-28.1-21.9v-8.5h5.7v-5.9h8.3c4.4-3.4,0.5-8.3-10.8-26.6c-11.4-18.3-12.1-52.6-19.1-93.9
			c-7-41.3-38.2-46.7-38.2-46.7v-8.5h9v-9.3h-9v-14.7h7V335h-8.8v-25h-5.2v-33.3h-4.1v-23h-6.2v-23.2h-4.6v-5.7h7.7L507.2,70.8h-1
			h-1.9h-1l-12.4,154.1h7.7v5.7h-4.6v23.2h-6.2v23h-4.1V310h-5.2v25h-8.8v11.1h7v14.7h-9v9.3h9v8.5c0,0-31.2,5.4-38.2,46.7
			c-7,41.3-7.7,75.6-19.1,93.9c-11.4,18.3-15.2,23.2-10.8,26.6h8.3v5.9h5.7v8.5c0,0-28.9,6.2-28.1,21.9h5.2v5.4c0,0-11.1,1-11.1,8.8
			h4.1v5.7h-10.3v9h5.2v8h-13.7V630h5.7v6.7h-15.2v12.9c0,0,5.2,12.1,15.7,14.2c0,0-30.5,4.9-35.6,24.5h158.5h4.8h158.5
			C660.9,668.7,630.5,663.8,630.5,663.8z"/>
		
			<rect x="379.3" y="630" fill="#FBB61D" stroke="#772626" stroke-width="3" stroke-linejoin="round" stroke-miterlimit="10"  a:adobe-blending-mode="multiply" width="126.8" height="7"/>
		
			<path fill="#FBB61D" stroke="#772626" stroke-width="3" stroke-linejoin="round" stroke-miterlimit="10"  a:adobe-blending-mode="multiply" d="
			M367.3,655c2.6,3.5,6.7,7.6,12.5,8.8c0,0-1.8,0.3-4.7,1h131V655H367.3z"/>
		
			<rect x="387.3" y="611.1" fill="#FBB61D" stroke="#772626" stroke-width="3" stroke-linejoin="round" stroke-miterlimit="10"  a:adobe-blending-mode="multiply" width="118.8" height="8.5"/>
		
			<rect x="392.5" y="596.4" fill="#FBB61D" stroke="#772626" stroke-width="3" stroke-linejoin="round" stroke-miterlimit="10"  a:adobe-blending-mode="multiply" width="113.6" height="5.9"/>
		
			<rect x="422.4" y="551.8" fill="#FBB61D" stroke="#772626" stroke-width="3" stroke-linejoin="round" stroke-miterlimit="10"  a:adobe-blending-mode="multiply" width="83.7" height="9"/>
		
			<path fill="#FBB61D" stroke="#772626" stroke-width="3" stroke-linejoin="round" stroke-miterlimit="10"  a:adobe-blending-mode="multiply" d="
			M506.1,383.6v-4.1h-32.7c-2.2,0.7-5.3,2-8.8,4.1H506.1z"/>
		<g  a:adobe-blending-mode="multiply">
			
				<rect x="506.1" y="630" fill="#FBB61D" stroke="#772626" stroke-width="3" stroke-linejoin="round" stroke-miterlimit="10"  a:adobe-blending-mode="normal" width="126.8" height="7"/>
			
				<path fill="#FBB61D" stroke="#772626" stroke-width="3" stroke-linejoin="round" stroke-miterlimit="10"  a:adobe-blending-mode="normal" d="
				M644.9,655c-2.6,3.5-6.7,7.6-12.5,8.8c0,0,1.8,0.3,4.7,1h-131V655H644.9z"/>
			
				<rect x="506.1" y="611.1" fill="#FBB61D" stroke="#772626" stroke-width="3" stroke-linejoin="round" stroke-miterlimit="10"  a:adobe-blending-mode="normal" width="118.8" height="8.5"/>
			
				<rect x="506.1" y="596.4" fill="#FBB61D" stroke="#772626" stroke-width="3" stroke-linejoin="round" stroke-miterlimit="10"  a:adobe-blending-mode="normal" width="113.6" height="5.9"/>
			
				<rect x="506.1" y="551.8" fill="#FBB61D" stroke="#772626" stroke-width="3" stroke-linejoin="round" stroke-miterlimit="10"  a:adobe-blending-mode="normal" width="83.7" height="9"/>
			
				<path fill="#FBB61D" stroke="#772626" stroke-width="3" stroke-linejoin="round" stroke-miterlimit="10"  a:adobe-blending-mode="normal" d="
				M506.1,383.6v-4.1h32.7c2.2,0.7,5.3,2,8.8,4.1H506.1z"/>
		</g>
		<g  a:adobe-blending-mode="multiply">
			
				<polygon fill="#FBB61D" stroke="#772626" stroke-width="3" stroke-linejoin="round" stroke-miterlimit="10"  a:adobe-blending-mode="normal" points="
				533.7,371 533.7,370.1 542.8,370.1 542.8,364.9 467.6,364.9 467.6,370.1 476.6,370.1 476.6,371 			"/>
			
				<polygon fill="#FBB61D" stroke="#772626" stroke-width="3" stroke-linejoin="round" stroke-miterlimit="10"  a:adobe-blending-mode="normal" points="
				533.7,347.7 533.7,346.1 540.7,346.1 540.7,341.6 469.6,341.6 469.6,346.1 476.6,346.1 476.6,347.7 			"/>
			
				<polygon fill="#FBB61D" stroke="#772626" stroke-width="3" stroke-linejoin="round" stroke-miterlimit="10"  a:adobe-blending-mode="normal" points="
				526.8,278.4 526.8,276.7 522.6,276.7 522.6,272.3 487.7,272.3 487.7,276.7 483.6,276.7 483.6,278.4 			"/>
			
				<polygon fill="#FBB61D" stroke="#772626" stroke-width="3" stroke-linejoin="round" stroke-miterlimit="10"  a:adobe-blending-mode="normal" points="
				540.7,335.1 540.7,335 531.9,335 531.9,329 478.4,329 478.4,335 469.6,335 469.6,335.1 			"/>
			
				<polygon fill="#FBB61D" stroke="#772626" stroke-width="3" stroke-linejoin="round" stroke-miterlimit="10"  a:adobe-blending-mode="normal" points="
				531.9,310.9 531.9,310 526.8,310 526.8,304.9 483.6,304.9 483.6,310 478.4,310 478.4,310.9 			"/>
		</g>
	</g>
</g>
<path fill="#F47923" stroke="#772424" stroke-width="3" stroke-linejoin="round" stroke-miterlimit="10" d="M488.2,732.6v-23.8h432
	v19.7c0,0,5.2,35.5-78.5,39.3C757.9,771.6,488.2,732.6,488.2,732.6z"/>
<path fill="#FBB61D" stroke="#772626" stroke-width="3" stroke-linejoin="round" stroke-miterlimit="10" d="M920.1,708.8
	c0,3.1-96.7,5.7-216,5.7c-119.3,0-216-2.5-216-5.7c0-3.1,96.7-5.7,216-5.7C823.4,703.1,920.1,705.6,920.1,708.8z"/>
<path fill="#772424" d="M952.8,171.9c0,2.2-1.8,4-4,4H851c-2.2,0-4-1.8-4-4l0,0c0-2.2,1.8-4,4-4h97.8
	C951,167.9,952.8,169.7,952.8,171.9L952.8,171.9z"/>
<path fill="#772424" d="M754,161c0,2.2-1.8,4-4,4h-21.4c-2.2,0-4-1.8-4-4l0,0c0-2.2,1.8-4,4-4h21.4C752.1,156.9,754,158.7,754,161
	L754,161z"/>
<path fill="#772424" d="M862.2,341.6c0,3.6,3,6.6,6.6,6.6h114.7c3.6,0,6.6-3,6.6-6.6l0,0c0-3.6-3-6.6-6.6-6.6H868.8
	C865.2,335,862.2,338,862.2,341.6L862.2,341.6z"/>
<path fill="#772424" d="M421.3,180.4c0,3.6,3,6.6,6.6,6.6h114.7c3.6,0,6.6-3,6.6-6.6l0,0c0-3.6-3-6.6-6.6-6.6H427.9
	C424.3,173.8,421.3,176.7,421.3,180.4L421.3,180.4z"/>
<path fill="#772424" d="M549.2,359.9c0,2.1-1.7,3.9-3.9,3.9h-20c-2.1,0-3.9-1.7-3.9-3.9l0,0c0-2.1,1.7-3.9,3.9-3.9h20
	C547.4,356,549.2,357.8,549.2,359.9L549.2,359.9z"/>
<path fill="#772424" d="M330.9,454.3c0,2-1.6,3.6-3.6,3.6h-41.4c-2,0-3.6-1.6-3.6-3.6l0,0c0-2,1.6-3.6,3.6-3.6h41.4
	C329.3,450.7,330.9,452.3,330.9,454.3L330.9,454.3z"/>
<path fill="#772424" d="M1125.4,576.7c0,2-1.6,3.6-3.6,3.6h-35.6c-2,0-3.6-1.6-3.6-3.6l0,0c0-2,1.6-3.6,3.6-3.6h35.6
	C1123.8,573.1,1125.4,574.7,1125.4,576.7L1125.4,576.7z"/>
<path fill="#772424" d="M1032.1,538.1c0,1-0.8,1.8-1.8,1.8h-8.7c-1,0-1.8-0.8-1.8-1.8l0,0c0-1,0.8-1.8,1.8-1.8h8.7
	C1031.3,536.3,1032.1,537.1,1032.1,538.1L1032.1,538.1z"/>
<path fill="#772424" d="M395.6,399.6c0,1.1-0.9,2-2,2h-12.5c-1.1,0-2-0.9-2-2l0,0c0-1.1,0.9-2,2-2h12.5
	C394.7,397.5,395.6,398.5,395.6,399.6L395.6,399.6z"/>
<path fill="#772424" d="M1070.3,385.4c0,1.9-1.5,3.4-3.4,3.4h-14.5c-1.9,0-3.4-1.5-3.4-3.4l0,0c0-1.9,1.5-3.4,3.4-3.4h14.5
	C1068.8,382,1070.3,383.5,1070.3,385.4L1070.3,385.4z"/>
<path fill="#772424" d="M363.4,393.5c0,2.1-1.7,3.8-3.8,3.8h-9.3c-2.1,0-3.8-1.7-3.8-3.8l0,0c0-2.1,1.7-3.8,3.8-3.8h9.3
	C361.6,389.6,363.4,391.4,363.4,393.5L363.4,393.5z"/>
<g>
	<g>
		<path fill="#F47923" stroke="#772424" stroke-width="3" stroke-linejoin="round" stroke-miterlimit="10" d="M591.8,570.9
			c0,0-2.4,7.8-20.5,7.3c-18.1-0.6-28.1,8.3-28.1,8.3s-17.6,0.2-20.9,13.1c0,0-6.2,1.4-5.2,8.1c0,0-15.7,8.1-20,27.1
			c-4.3,19,5.7,34.7,5.7,34.7s-4.3,28.1,29,36.7c33.3,8.6,71.9-1.9,71.9-1.9s10.9,5.3,20.9,5.3c10,0,10,0,10,0s14.3,7.2,24.8,0
			c0,0,14.3,6.1,26.2,0.4c0,0,17.6,4.5,37.6,2.7c20-1.8,27.1-5.6,27.1-5.6s10,5.2,21.9,1.4c0,0,17.6,5.7,31.4-1.4
			c0,0,15.2,5.7,28.1-1c0,0,26.2,8.1,48.1-1.9c21.9-10,24.3-33.8,24.3-33.8s9.2-7.8,5.8-28.4c-3.4-20.6-18.6-33.9-18.6-33.9
			s-0.5-6.5-8.1-5.9c0,0,2.4-15.6-20.5-12.2c0,0-12.6-15.6-46.5-9.5c-33.9,6.1-71.7-15.8-71.7-15.8s-26.2,0-33-1
			c-6.8-1.1-20.6-0.7-61.3,0C609.4,564.3,591.8,570.9,591.8,570.9z"/>
		<path fill="none" stroke="#772424" stroke-width="3" stroke-linecap="round" stroke-linejoin="round" stroke-miterlimit="10" d="
			M634.6,709.4c0,0,14.3,7.2,24.8,0c0,0,14.3,6.1,26.2,0.4c0,0,11.7,3,26.8,3.2c2-1.6,3.4-2.7,3.4-2.7s-2.8-1.1-12.5-8.2
			c-9.6-7.1-8.9-15,0-9.6c8.9,5.4,17.5,1.1,23.6-18.2c6.1-19.3,6.2-37.3,6.7-50.1c0.4-11.3,7.5-45.1,13.4-54.7
			c-4.7-0.4-23.5-6.7-29.4-7.7c-16.4-2.6-13.3,7.8-36.4,3.9c-0.1,0-11,0-19.9,20.7c-8.9,20.8-42.8,85.1-61,90.1
			c-18.2,5-8.2,20.1,3.6,27.7c0,0,10.9,5.3,20.9,5.3C634.6,709.4,634.6,709.4,634.6,709.4z"/>
		<path fill="none" stroke="#772424" stroke-width="3" stroke-linecap="round" stroke-linejoin="round" stroke-miterlimit="10" d="
			M878.5,652.5c12.8-8.2,19.2-21.2,22-33.4"/>
		<path fill="none" stroke="#772424" stroke-width="3" stroke-linecap="round" stroke-linejoin="round" stroke-miterlimit="10" d="
			M761.1,611.8c0,0,17.5,40,67,47.8c16.3,2.6,29.1,1.5,39.2-1.8"/>
		<path fill="none" stroke="#772424" stroke-width="3" stroke-linecap="round" stroke-linejoin="round" stroke-miterlimit="10" d="
			M831.8,627.9c-30.6-3.1-56.7-21.8-56.7-21.8"/>
		<path fill="none" stroke="#772424" stroke-width="3" stroke-linecap="round" stroke-linejoin="round" stroke-miterlimit="10" d="
			M883.1,602.1c0,0,3.3,21.1-34,25.6"/>
		<path fill="none" stroke="#772424" stroke-width="3" stroke-linecap="round" stroke-linejoin="round" stroke-miterlimit="10" d="
			M866.1,589.6c0,0-7.1,21.6-39.7,19.2"/>
		<path fill="none" stroke="#772424" stroke-width="3" stroke-linecap="round" stroke-linejoin="round" stroke-miterlimit="10" d="
			M808.2,654.3c0,0,7.6,17.1,21.4,21.1c13.8,4,21.7,20.9,2.1,30.7"/>
		<path fill="none" stroke="#772424" stroke-width="3" stroke-linecap="round" stroke-linejoin="round" stroke-miterlimit="10" d="
			M811.2,708.8c0,0,7.2,2.5,11.8-8c4.5-10.5,7.9-14.5,10.5-11.2c2.6,3.3-1.2,17.2-9,19.4"/>
		<path fill="none" stroke="#772424" stroke-width="3" stroke-linecap="round" stroke-linejoin="round" stroke-miterlimit="10" d="
			M779.8,636.5c0,0,3.3,13.9,16.7,27.7c13.3,13.8,19.8,16.4,20.5,23.3c0.7,6.9-4.8,15-13.3,19.5"/>
		<path fill="none" stroke="#772424" stroke-width="3" stroke-linecap="round" stroke-linejoin="round" stroke-miterlimit="10" d="
			M779.8,710.1c0,0,6.7-0.9,13.3-9c6.7-8.1,9.5-15.4,12.4-12.6c2.9,2.8,3.8,10.7-5.5,15.4"/>
		<path fill="none" stroke="#772424" stroke-width="3" stroke-linecap="round" stroke-linejoin="round" stroke-miterlimit="10" d="
			M764.6,618.1c0,0-0.5,64.6-40.5,76.3"/>
		<path fill="none" stroke="#772424" stroke-width="3" stroke-linecap="round" stroke-linejoin="round" stroke-miterlimit="10" d="
			M772.2,708.5c0,0,9.3-3.3,14.8-12.6c5.5-9.3,4.8-17-5.5-24.1c-10.2-7.1-16.9-23.2-19.2-32.4"/>
		<path fill="none" stroke="#772424" stroke-width="3" stroke-linecap="round" stroke-linejoin="round" stroke-miterlimit="10" d="
			M755.1,708.5c0,0,7.6-1.7,14-11.7c6.4-10,9.3-14.5,11.9-10.7c2.6,3.8-1,13.1-10.9,17.4"/>
		<path fill="none" stroke="#772424" stroke-width="3" stroke-linecap="round" stroke-linejoin="round" stroke-miterlimit="10" d="
			M750.3,707c0,0,13.3-8.3,10.8-15.2c-2.5-6.9-9.1-15.9-7.7-24.4"/>
		<path fill="none" stroke="#772424" stroke-width="3" stroke-linecap="round" stroke-linejoin="round" stroke-miterlimit="10" d="
			M737.7,703.9c0.7,0,7.9,0.8,12.6-7.3c4.8-8.1-0.2-8.1-3.6-5c-3.3,3.1-7.5,9-13.3,9.5c-5.8,0.5-5.1-8.2-5.1-8.2"/>
		<path fill="none" stroke="#772424" stroke-width="3" stroke-linecap="round" stroke-linejoin="round" stroke-miterlimit="10" d="
			M703.3,711.6c0,0-15.6-2.7-17.3-12.7c-1.7-10.1,8.4,0.6,14,7.3"/>
		<path fill="none" stroke="#772424" stroke-width="3" stroke-linecap="round" stroke-linejoin="round" stroke-miterlimit="10" d="
			M685.9,709.1c0,0-8.9-6.8-9.8-14.7c-1-7.9,10-14.3,16.7-28.1c6.7-13.8,6.9-30.5,6.9-30.5"/>
		<path fill="none" stroke="#772424" stroke-width="3" stroke-linecap="round" stroke-linejoin="round" stroke-miterlimit="10" d="
			M659.9,708.5c0,0-10-10.5-11.7-17.4c-1.7-6.9,8.3-14,14-20.9c5.7-6.9,12.4-17.6,16.2-33.7"/>
		<path fill="none" stroke="#772424" stroke-width="3" stroke-linecap="round" stroke-linejoin="round" stroke-miterlimit="10" d="
			M634.6,709.4c0,0-11.9-8.3-11.4-18.8c0.5-10.5,13.2-13,24.8-29.5c11.6-16.4,15.2-31.4,15.2-31.4"/>
		<path fill="none" stroke="#772424" stroke-width="3" stroke-linecap="round" stroke-linejoin="round" stroke-miterlimit="10" d="
			M603.9,703.1c0,0-15.5-8.9-2.1-19.6c13.3-10.7,39-24.3,45-47.6"/>
		<path fill="none" stroke="#772424" stroke-width="3" stroke-linecap="round" stroke-linejoin="round" stroke-miterlimit="10" d="
			M624.6,709.5c0,0-4.5,1.3-8.1-10.5c-3.6-11.7-7.4-12-9-9.3c-1.7,2.6,1.9,14.8,10.5,18.8"/>
		<path fill="none" stroke="#772424" stroke-width="3" stroke-linecap="round" stroke-linejoin="round" stroke-miterlimit="10" d="
			M655.2,711.6c0,0-4.4,1.7-9.8-8.5c-5.5-10.1-8.1-13.9-11.2-12.5c-3.1,1.4,1.2,16.3,12.6,22"/>
		<path fill="none" stroke="#772424" stroke-width="3" stroke-linecap="round" stroke-linejoin="round" stroke-miterlimit="10" d="
			M680.8,711.6c0,0-6,1.7-11.7-10.1c-5.7-11.8-9.5-13-10.9-11.8c-1.4,1.2,1,15,12.6,21.9"/>
		<path fill="none" stroke="#772424" stroke-width="3" stroke-linecap="round" stroke-linejoin="round" stroke-miterlimit="10" d="
			M502.8,669.4c0,0,13.6,19.2,47.8,17.8c34.3-1.4,62.1-28,62.1-28"/>
		<path fill="none" stroke="#772424" stroke-width="3" stroke-linecap="round" stroke-linejoin="round" stroke-miterlimit="10" d="
			M543.2,661.2c26.8,3.4,68.8-13.7,100-37.3"/>
		<path fill="none" stroke="#772424" stroke-width="3" stroke-linecap="round" stroke-linejoin="round" stroke-miterlimit="10" d="
			M511,611.8c0,0-6.8,23.7,14.9,42.4"/>
		<path fill="none" stroke="#772424" stroke-width="3" stroke-linecap="round" stroke-linejoin="round" stroke-miterlimit="10" d="
			M570.4,626.8c44.5,0.5,84.8-30.5,84.8-30.5"/>
		<path fill="none" stroke="#772424" stroke-width="3" stroke-linecap="round" stroke-linejoin="round" stroke-miterlimit="10" d="
			M522.3,599.5c0,0,2.9,21.6,35.5,26.4"/>
		<path fill="none" stroke="#772424" stroke-width="3" stroke-linecap="round" stroke-linejoin="round" stroke-miterlimit="10" d="
			M543.2,586.4c0,0,21.7,31.6,62.8,16.6"/>
	</g>
	<path fill="#FBB61D" stroke="#772626" stroke-width="3" stroke-linejoin="round" stroke-miterlimit="10" d="M832,443.1
		c-4.3-23.9-13.6-67.8-38.6-76.8c-25-8.9-56.4-17.1-55.9-19.6c0.5-2.5,0.2-10.6,0.2-10.6s-21.7-9.1-33,12c-11.3-21.1-33-12-33-12
		s-0.3,8.1,0.2,10.6c0.5,2.5-30.9,10.7-55.9,19.6c-25,8.9-34.3,52.8-38.6,76.8c-4.3,23.9-12.5,70-12.5,70s20.3,14.6,36.1,13.6
		c15.7-1.1,17.5-13.9,17.5-13.9c3.6-13.6,16.8-60.7,16.8-60.7s3.9,22.8,4.3,45c0.4,22.1-4.3,56.4-4.3,56.4h69.4h69.4
		c0,0-4.6-34.3-4.3-56.4c0.4-22.1,4.3-45,4.3-45s13.2,47.1,16.8,60.7c0,0,1.8,12.9,17.5,13.9s33.2-18.3,33.2-18.3
		S836.3,467,832,443.1z"/>
	<path fill="none" stroke="#772424" stroke-width="3" stroke-linecap="round" stroke-linejoin="round" stroke-miterlimit="10" d="
		M712.7,434.7c0,0,18.3,9,41.4,0"/>
	<path fill="none" stroke="#772424" stroke-width="3" stroke-linecap="round" stroke-linejoin="round" stroke-miterlimit="10" d="
		M651.2,434.7c0,0,18.3,9,41.4,0"/>
	<path fill="#F47923" stroke="#772424" stroke-width="3" stroke-linejoin="round" stroke-miterlimit="10" d="M671.9,346.7
		c0,0-21,3.2-14.3,56.6c6.6,53.4,25.7,89.3,25.7,89.3L628.1,544c0,0,13.8-54,4.3-51.4c-9.5,2.6-66.6,15.9-66.6,15.9
		s11.8-74.7,16.8-96.9s14.6-35,17.5-39.3c2.9-4.3,11.4-9.6,21.4-11.4c10-1.8,11.8-4.3,15.7-6.1c3.9-1.8,8.2-5.4,15-4.6
		C658.9,351,664.3,343.5,671.9,346.7z"/>
	<path fill="none" stroke="#772424" stroke-width="3" stroke-linecap="round" stroke-linejoin="round" stroke-miterlimit="10" d="
		M646.3,381.9c-1.9,19.6,0.4,47.2,16.8,79.7"/>
	<path fill="#F47923" stroke="#772424" stroke-width="3" stroke-linejoin="round" stroke-miterlimit="10" d="M737.6,346.7
		c0,0,4,59.5-15.8,89.5c-19.8,30-73.8,43.8-82.4,52.1c-8.6,8.3-11.2,53.2-14.6,60.7c-3.3,7.6-3.3,7.6-3.3,7.6s4.8,17.9,74.9,14
		c70.1-4,94.3-26.6,94.3-26.6l-1.4-40.9c0,0-12.1-38.6-11.4-59.3c0.7-20.7,25.6-54.3,15.6-77.5c0,0-7.3-8.9-19.4-10.6
		c0,0-4.3-5.9-12.5-6.1c-8.3-0.2-12.2-1.5-12.2-1.5S746.7,345.2,737.6,346.7z"/>
	<path fill="#FBB61D" stroke="#772626" stroke-width="3" stroke-linejoin="round" stroke-miterlimit="10" d="M666.4,327.4
		c-7-12.5-6.5-26.5-5.4-38.8l-5.2-5.6c0,0-8.7-2.5-7.6,8.6c1.1,11.1,9.6,10.6,5.1,24.1c-4.6,13.5-4.3,28.8,7.1,29.3
		c11.4,0.5,11.6-10.5,11.6-10.5v0C669.8,332.5,667.9,330.1,666.4,327.4z"/>
	<path fill="#FBB61D" stroke="#772626" stroke-width="3" stroke-linejoin="round" stroke-miterlimit="10" d="M743.2,327.4
		c7-12.5,6.5-26.5,5.4-38.8l5.2-5.6c0,0,8.7-2.5,7.6,8.6s-9.6,10.6-5.1,24.1c4.6,13.5,4.3,28.8-7.1,29.3s-11.6-10.5-11.6-10.5v0
		C739.8,332.5,741.7,330.1,743.2,327.4z"/>
	<path fill="#FBB61D" stroke="#772626" stroke-width="3" stroke-linejoin="round" stroke-miterlimit="10" d="M747.5,272.4
		c0-14.6,2.5-32.1-13.9-36.4c-16.1-4.2-28.2-2.2-28.8-2.1c-0.5-0.1-12.7-2-28.8,2.1c-16.4,4.3-13.9,21.8-13.9,36.4s-6.1,36.4,4.3,55
		c10,17.9,36.5,20.5,38.3,20.7v0c0,0,0,0,0.1,0c0,0,0.1,0,0.1,0v0c1.8-0.2,28.3-2.8,38.3-20.7C753.6,308.8,747.5,287.1,747.5,272.4z
		"/>
	<path fill="#4E1815" stroke="#772626" stroke-width="3" stroke-linejoin="round" stroke-miterlimit="10" d="M758.9,236.3
		c0.5-10.1-8-7.4-8-7.4s-0.5-3.5-3-5.4c-2.6-2-5.6-0.7-5.6-0.7c-0.9-9-9.9-5.8-9.9-5.8s-1.9-3.2-5.5-3.3c-3.5-0.2-4.9,1.8-4.9,1.8
		c-5.3-6-11.6-0.3-11.6-0.3c-1.6-5.4-5.2-4.3-5.6-4.1c-0.5-0.2-4.1-1.3-5.6,4.1c0,0-6.3-5.7-11.6,0.3c0,0-1.4-2-4.9-1.8
		c-3.5,0.2-5.5,3.3-5.5,3.3s-9-3.3-9.9,5.8c0,0-3-1.2-5.6,0.7c-2.6,2-3,5.4-3,5.4s-8.5-2.7-8,7.4c0,0-2.3,2-2.4,5.7
		c-0.1,3.4,1.3,6,4.2,7.1c0.1-1.9,0.8-3.9,3.4-5.3c0,0-0.7-5.9,5.2-7.9c0,0,1.4-3.8,4.7-5c3.3-1.2,5.6,0,5.6,0s2.1-4.7,5.7-5
		c3.6-0.3,4.5,0.9,4.5,0.9s2.9-3.9,6.9-3.5c4.1,0.5,5,3,5,3s5-7.5,11.2-1.3v0.1c0,0,0,0,0.1,0c0,0,0,0,0.1,0v-0.1
		c6.2-6.2,11.2,1.3,11.2,1.3s0.9-2.6,5-3c4.1-0.5,7,3.5,7,3.5s0.9-1.2,4.5-0.9c3.6,0.3,5.7,5,5.7,5s2.3-1.2,5.6,0
		c3.3,1.2,4.7,5,4.7,5c5.9,2,5.2,7.9,5.2,7.9c2.6,1.4,3.3,3.4,3.4,5.3c3-1.1,4.4-3.7,4.3-7.1C761.2,238.3,758.9,236.3,758.9,236.3z"
		/>
	<path fill="#4E1815" stroke="#772626" stroke-width="3" stroke-linejoin="round" stroke-miterlimit="10" d="M757.7,272
		c0,0,2.7-2.6,2.4-6c-0.3-3.5-2.4-3.9-2.4-3.9s4.1-4.2-1.5-8.6c0,0,3.2-6.5-2.5-9.5c0,0,0.7-5.9-5.2-7.9c0,0-1.4-3.8-4.7-5
		c-3.3-1.2-5.6,0-5.6,0s-2.1-4.7-5.7-5c-3.6-0.3-4.5,0.9-4.5,0.9s-2.9-3.9-7-3.5c-4.1,0.5-5,3-5,3s-5-7.5-11.2-1.3
		c-6.2-6.3-11.2,1.3-11.2,1.3s-0.9-2.6-5-3c-4.1-0.5-6.9,3.5-6.9,3.5s-0.9-1.2-4.5-0.9c-3.6,0.3-5.7,5-5.7,5s-2.3-1.2-5.6,0
		c-3.3,1.2-4.7,5-4.7,5c-5.9,2-5.2,7.9-5.2,7.9c-5.7,3-2.5,9.5-2.5,9.5c-5.6,4.4-1.5,8.6-1.5,8.6s-2.1,0.5-2.4,3.9
		c-0.3,3.5,2.4,6,2.4,6s-1.7,1.2-1.1,5.6c0.6,4.4,5,5.4,5,5.4c-3.6,10.1,6.5,13.4,6.5,13.4l0.2-0.9c2.1-2.4,0.2-9.8,0.2-9.8
		c2.7-3.2-0.7-7.6-0.7-7.6c2.8-3.1,0.2-6.8,0.2-6.8c3.1-3.5-0.1-8-0.1-8c3.3-3,0.1-6.8,0.1-6.8c3-1.1,2-6.5,2-6.5
		c3.9-1.4,3.2-5.3,3.2-5.3s2.1,0.5,4.5-0.9s2.4-3,2.4-3s2.9,0.6,5.9-0.2c3-0.8,3.2-3.9,3.2-3.9s2.4,2.6,5.7,2.3
		c3.3-0.3,4.4-3.6,4.4-3.6s3,3.5,6.8,3.3c3.3-0.1,4.4-3,4.6-3.7c0.2,0.8,1.3,3.6,4.6,3.7c3.8,0.2,6.8-3.3,6.8-3.3s1.1,3.3,4.4,3.6
		c3.3,0.3,5.7-2.3,5.7-2.3s0.2,3.2,3.2,3.9c3,0.8,5.9,0.2,5.9,0.2s0,1.7,2.4,3c2.4,1.4,4.5,0.9,4.5,0.9s-0.8,3.9,3.2,5.3
		c0,0-1,5.4,2,6.5c0,0-3.2,3.8,0.1,6.8c0,0-3.3,4.5-0.1,8c0,0-2.5,3.7,0.2,6.8c0,0-3.4,4.4-0.7,7.6c0,0-1.9,7.4,0.2,9.8l0.2,0.9
		c0,0,10.1-3.3,6.5-13.4c0,0,4.4-1.1,5-5.4C759.4,273.2,757.7,272,757.7,272z"/>
	<path fill="#4E1815" stroke="#772626" stroke-width="3" stroke-linejoin="round" stroke-miterlimit="10" d="M752.6,219.7
		c1.2-6.3-5.6-6.3-5.6-6.3s-1.4-4.2-4.5-5c-3.2-0.8-6.3,1.5-6.3,1.5s-1.2-3-4.4-3.8c-3.2-0.8-4.7,0.6-4.7,0.6s-1.5-3-5.1-4.2
		c-3.6-1.2-6.2,1.8-6.2,1.8s-2.1-3.3-6.2-3.2c-3.5,0.1-4.5,2.1-4.7,2.6c-0.2-0.5-1.2-2.4-4.7-2.6c-4.1-0.2-6.2,3.2-6.2,3.2
		s-2.6-3-6.2-1.8c-3.6,1.2-5.1,4.2-5.1,4.2s-1.6-1.4-4.7-0.6c-3.2,0.8-4.4,3.8-4.4,3.8s-3.2-2.2-6.3-1.5c-3.2,0.8-4.5,5-4.5,5
		s-6.8,0-5.6,6.3c0,0-6,2.7-3.8,9.7c0,0,0,0,0,0c2.3-1.4,5.4-0.5,5.4-0.5s0.5-3.5,3-5.4c2.6-2,5.6-0.7,5.6-0.7
		c0.9-9,9.9-5.8,9.9-5.8s1.9-3.2,5.5-3.3c3.5-0.2,4.9,1.8,4.9,1.8c5.3-6,11.6-0.3,11.6-0.3c1.5-5.2,5-4.3,5.6-4.1v0c0,0,0,0,0.1,0
		c0,0,0.1,0,0.1,0v0c0.6-0.2,4.1-1.1,5.6,4.1c0,0,6.3-5.7,11.6,0.3c0,0,1.4-2,4.9-1.8c3.5,0.2,5.5,3.3,5.5,3.3s9-3.3,9.9,5.8
		c0,0,3-1.2,5.6,0.7c2.6,2,3,5.4,3,5.4s3.1-1,5.4,0.5c0,0,0,0,0,0C758.6,222.4,752.6,219.7,752.6,219.7z"/>
	<path fill="#4E1815" stroke="#772626" stroke-width="3" stroke-linejoin="round" stroke-miterlimit="10" d="M738.2,201.1
		c-3-1.2-5.7,0.5-5.7,0.5s-1.4-3.5-5.5-4.9c-4.1-1.4-5.3,0.4-5.3,0.4c-5.8-5.8-10.5-0.8-10.5-0.8c-2.4-2.8-5.9-2.3-6.4-2.3
		c-0.5-0.1-4-0.5-6.4,2.3c0,0-4.6-5-10.5,0.8c0,0-1.3-1.8-5.3-0.4c-4.1,1.4-5.5,4.9-5.5,4.9s-2.8-1.7-5.7-0.5
		c-2.5,1-4.4,3.9-4.4,7.3c0.1,0,0.1,0,0.2,0c3.2-0.8,6.3,1.5,6.3,1.5s1.2-3,4.4-3.8c3.2-0.8,4.7,0.6,4.7,0.6s1.5-3,5.1-4.2
		c3.6-1.2,6.2,1.8,6.2,1.8s2.1-3.3,6.2-3.2c3.3,0.1,4.4,1.8,4.7,2.5v0.3c0,0,0-0.1,0.1-0.1c0,0.1,0.1,0.1,0.1,0.1v-0.3
		c0.3-0.6,1.4-2.3,4.7-2.5c4.1-0.2,6.2,3.2,6.2,3.2s2.6-3,6.2-1.8c3.6,1.2,5.1,4.2,5.1,4.2s1.6-1.4,4.7-0.6c3.2,0.8,4.4,3.8,4.4,3.8
		s3.2-2.2,6.3-1.5c0.1,0,0.1,0,0.2,0C742.6,205,740.8,202.2,738.2,201.1z"/>
	<path fill="none" stroke="#772626" stroke-width="3" stroke-linecap="round" stroke-linejoin="round" stroke-miterlimit="10" d="
		M665.4,272.5c0,0,1.6-10.8,14.8-11.7c13.3-0.9,23.3,10.3,21.7,21.2s-5.4,12.4-7.2,16.1c-1.8,3.7,1.6,6,4.7,4.9c0,0,1,2.4,5.5,2.4"
		/>
	<path fill="none" stroke="#772626" stroke-width="3" stroke-linecap="round" stroke-linejoin="round" stroke-miterlimit="10" d="
		M667.5,260.8c0,0,11.2-11.8,28.8,0"/>
	<path fill="none" stroke="#772626" stroke-width="3" stroke-linecap="round" stroke-linejoin="round" stroke-miterlimit="10" d="
		M672.9,280.8c0,0,1-10.9,10.9-10.9c9.9,0,10.1,10.9,10.1,10.9h-18.7H672.9z"/>
	<path fill="#772626" stroke="#772626" stroke-width="3" stroke-linejoin="round" stroke-miterlimit="10" d="M675.2,280.8H675v0.3
		c0,0,3,2.9,8.4,2.9c4.6,0,7.2-2.5,7.8-3.2H675.2z"/>
	<path fill="none" stroke="#772626" stroke-width="3" stroke-linecap="round" stroke-linejoin="round" stroke-miterlimit="10" d="
		M694.4,298.8c0,0-4.8,3.3-5.4,8.9"/>
	<path fill="none" stroke="#772626" stroke-width="3" stroke-linecap="round" stroke-linejoin="round" stroke-miterlimit="10" d="
		M693.7,321.6c0.4,0,3.3,1.2,5.1,2.9c1.8,1.8,2.7,2.4,6,2.4"/>
	<path fill="none" stroke="#772626" stroke-width="3" stroke-linecap="round" stroke-linejoin="round" stroke-miterlimit="10" d="
		M744.3,272.5c0,0-1.5-10.8-14.8-11.7c-13.3-0.9-23.3,10.3-21.7,21.2c1.6,10.9,5.4,12.4,7.2,16.1c1.8,3.7-1.6,6-4.7,4.9
		c0,0-1,2.4-5.5,2.4"/>
	<path fill="none" stroke="#772626" stroke-width="3" stroke-linecap="round" stroke-linejoin="round" stroke-miterlimit="10" d="
		M742.1,260.8c0,0-11.2-11.8-28.8,0"/>
	<path fill="none" stroke="#772626" stroke-width="3" stroke-linecap="round" stroke-linejoin="round" stroke-miterlimit="10" d="
		M736.8,280.8c0,0-1-10.9-10.9-10.9c-9.9,0-10.1,10.9-10.1,10.9h18.7H736.8z"/>
	<path fill="#772626" stroke="#772626" stroke-width="3" stroke-linejoin="round" stroke-miterlimit="10" d="M734.4,280.8h0.2v0.3
		c0,0-3,2.9-8.4,2.9c-4.7,0-7.2-2.5-7.8-3.2H734.4z"/>
	<path fill="none" stroke="#772626" stroke-width="3" stroke-linecap="round" stroke-linejoin="round" stroke-miterlimit="10" d="
		M715.2,298.8c0,0,4.8,3.3,5.4,8.9"/>
	<path fill="none" stroke="#772626" stroke-width="3" stroke-linecap="round" stroke-linejoin="round" stroke-miterlimit="10" d="
		M717.9,317.4c-1.5-0.6-4.6-2.6-6.9-4.8c-2.2-2-5.7-1.1-6.1-1c-0.5-0.1-3.9-1-6.1,1c-2.4,2.1-5.4,4.2-6.9,4.8
		c-1.5,0.6,0.8,1.4,3.8,1.4c3.1,0,6.4-2.1,9.2-1.6v0c0,0,0,0,0.1,0c0,0,0,0,0.1,0v0c2.8-0.5,6.1,1.6,9.2,1.6
		C717.1,318.8,719.4,318,717.9,317.4z"/>
	<path fill="none" stroke="#772626" stroke-width="3" stroke-linecap="round" stroke-linejoin="round" stroke-miterlimit="10" d="
		M715.9,321.6c-0.4,0-3.3,1.2-5.1,2.9c-1.8,1.8-2.7,2.4-6,2.4"/>
	
		<circle fill="#FBB61D" stroke="#772626" stroke-width="3" stroke-linejoin="round" stroke-miterlimit="10" cx="704" cy="253.2" r="2.8"/>
	<path fill="#FBB61D" stroke="#772626" stroke-width="3" stroke-linejoin="round" stroke-miterlimit="10" d="M565.2,515.8
		c0,0-3.3-19.5,17.2-30.6c20.5-11.1,54.3-10.7,57.9-14c3.6-3.3-4.6-24.4-5.9-29.3c-1.3-4.9-3.1-17.7,5.1-24.2
		c8.3-6.5,19.8-17.1,23.8-17.7c3.9-0.6,16.1-2.8,16.5,0c0.4,2.8-0.2,4.5-3.1,5.7c-2.9,1.2-17.9,7.9-17.9,7.9s8.1,0.4,10.6,2.8
		c2.6,2.4,7.1,7.1,9,8.8c2,1.8,4.3,4.3,4.3,6.3c0,2-2.4,2-4.9,2.4c-2.6,0.4-6.1-2.8-8.3-4.5c-2.2-1.8-10.4-4.5-13-3.9
		c-2.6,0.6-7.5,8.5-7.5,8.5l13.2,20.8c0,0,6.9-2.2,8.8-5.9c2-3.7,3.3-12.6,5.5-13.4c2.2-0.8,6.1-0.4,6.1-0.4s2.6,1.4,1.4,4.3
		c-1.2,2.9-1.6,13.2-1.4,15.3c0.2,2.2-1.8,17.3-5.5,31c-3.7,13.8-16.9,18.9-16.9,18.9s-30.9,23.6-56.4,29.7
		C578.5,540.4,566.9,528.7,565.2,515.8z"/>
	<path fill="#FBB61D" stroke="#772626" stroke-width="3" stroke-linejoin="round" stroke-miterlimit="10" d="M784.3,488.4
		c0,0,20.5-10.6,35.4-9.1c14.9,1.5,24,15,21.8,29c-2.1,14-16.9,29.2-32.6,41.7c-16,12.7-44,23.3-63.8,26.1
		c-19.8,2.7-25.9-4.3-25.9-4.3s-24.8-0.7-34.7-2.7c-9.9-2-13.2-3.2-14-5.7c-0.8-2.4,0.4-7.3,5.5-6.9c0,0,0.8-4.3,6.7-4.1
		c0,0-1-3,6.1-3s30.8,0.6,30.8,0.6s2.6-9.1,4.3-12.2c1.6-3,7.1-9.5,9.3-7.1c2.2,2.4,1.6,6.7,1.6,6.7l20.9,2.2c0,0,19-13.5,27.3-24.9
		C791.5,503.5,784.3,488.4,784.3,488.4z"/>
	<path fill="none" stroke="#772626" stroke-width="3" stroke-linecap="round" stroke-linejoin="round" stroke-miterlimit="10" d="
		M730.1,552.7c0.6,0,16.2,1.8,21.9,2.2c5.7,0.4,8.1,0.4,5.9,2.4c-2.2,2-7.5,6.9-13.5,7.3c-6,0.4-15.9-1.2-15.9-1.2L730.1,552.7z"/>
	<path fill="none" stroke="#772626" stroke-width="3" stroke-linecap="round" stroke-linejoin="round" stroke-miterlimit="10" d="
		M719.7,550c0,0-1.8,6.5-2.2,11.8c-0.4,5.3,1.8,10,1.8,10"/>
	
		<line fill="none" stroke="#772626" stroke-width="3" stroke-linecap="round" stroke-linejoin="round" stroke-miterlimit="10" x1="676.1" y1="556.5" x2="711.4" y2="558.7"/>
	
		<line fill="none" stroke="#772626" stroke-width="3" stroke-linecap="round" stroke-linejoin="round" stroke-miterlimit="10" x1="682.8" y1="552.5" x2="709" y2="554.7"/>
	<path fill="none" stroke="#772626" stroke-width="3" stroke-linecap="round" stroke-linejoin="round" stroke-miterlimit="10" d="
		M727.2,539.1c1,0.3,7.5,1,8.1,4.3c0.6,3.2,1,4.7-3,5.5s-10.6-1-10.6-1S721.4,537.5,727.2,539.1z"/>
	<path fill="#F47923" stroke="#772424" stroke-width="3" stroke-linejoin="round" stroke-miterlimit="10" d="M640.3,471.2
		c0,0-5.9,4,7.8,21.3c13.7,17.4,14.5,24.8,12.2,46.3l-10.2,13.8c0,0-5.7,16.3,2.5,38.2s5.3,42.8-8.9,40.9
		c-14.3-1.9-36.2-14.3-58.1,9.5c-21.9,23.8-61.9,3.8-69.5,19c0,0-7.6-11.4,13.3-26.7c20.9-15.2,32.4-47.2,33.3-75
		c1-27.8-8.5-59.2,19.6-73.5C610.5,470.9,640.3,471.2,640.3,471.2z"/>
	<path fill="#F47923" stroke="#772424" stroke-width="3" stroke-linejoin="round" stroke-miterlimit="10" d="M793.4,366.3
		c0,0,11.3-2,22.2,16.1c11,18.1,34.3,97.1,31.4,120.9c-2.9,23.8-1.4,37.4,5.7,49.4c6.7,11.3,13.5,20,12.2,29
		c-0.1,0.5-0.2,1.1-0.3,1.6c-2.4,9.5-24.1-1.4-35.4,8.6s-36.6,5.7-35.9,2.4c0.8-3.3-27.4-12.8-27.2-23c0.2-10.3,10.5-29.3-10.4-31.5
		c0,0,19.3-12.6,24.1-30.7c4.8-18.1-7.1-56.1-0.5-75C786.1,415.2,796.9,390.2,793.4,366.3z"/>
	<path fill="none" stroke="#772424" stroke-width="3" stroke-linecap="round" stroke-linejoin="round" stroke-miterlimit="10" d="
		M749.3,348.1c0,0,11.5,89.7-40.7,123.1"/>
	<path fill="none" stroke="#772424" stroke-width="3" stroke-linecap="round" stroke-linejoin="round" stroke-miterlimit="10" d="
		M703.3,474.1c0,0-6.9,4.7-12.1,5"/>
	<path fill="none" stroke="#772424" stroke-width="3" stroke-linecap="round" stroke-linejoin="round" stroke-miterlimit="10" d="
		M704.9,513.9c-6.7,3-14,5.2-22.1,6.6"/>
	<path fill="none" stroke="#772424" stroke-width="3" stroke-linecap="round" stroke-linejoin="round" stroke-miterlimit="10" d="
		M774,355.7c0,0,4.5,107.6-54.3,149.7"/>
	<path fill="none" stroke="#772424" stroke-width="3" stroke-linecap="round" stroke-linejoin="round" stroke-miterlimit="10" d="
		M758.7,482.3c-3.5,6.7-7.4,11.9-11.8,15"/>
	<path fill="none" stroke="#772424" stroke-width="3" stroke-linecap="round" stroke-linejoin="round" stroke-miterlimit="10" d="
		M784.9,359.5c0,0-5.3,72.2-21.8,113.3"/>
	<path fill="none" stroke="#772424" stroke-width="3" stroke-linecap="round" stroke-linejoin="round" stroke-miterlimit="10" d="
		M758.7,349.5"/>
	<path fill="none" stroke="#772424" stroke-width="3" stroke-linecap="round" stroke-linejoin="round" stroke-miterlimit="10" d="
		M660.4,538.9c0,0,1.8-15.9-10.4-25c-12.1-9.1-23.6-25.9-17.5-42.3"/>
	<path fill="none" stroke="#772424" stroke-width="3" stroke-linecap="round" stroke-linejoin="round" stroke-miterlimit="10" d="
		M614.9,474.1c0,0,4.2,53.2,30.7,59.3c0,0,4.2,6.1,0,12.9c-4.2,6.8-18.8,15.3-12.1,30.5c6.8,15.2-4.3,25.9-4.3,25.9
		s-17.9-6.5-36.1-44c-18.2-37.4-5.1-76.5-5.1-76.5"/>
	<path fill="none" stroke="#772424" stroke-width="3" stroke-linecap="round" stroke-linejoin="round" stroke-miterlimit="10" d="
		M623.1,526.1c3.6,4.2,8.1,7.7,13.6,9.9"/>
	<path fill="none" stroke="#772424" stroke-width="3" stroke-linecap="round" stroke-linejoin="round" stroke-miterlimit="10" d="
		M607.3,475.9c0,0,0,24.4,10.6,42.8"/>
	<path fill="none" stroke="#772424" stroke-width="3" stroke-linecap="round" stroke-linejoin="round" stroke-miterlimit="10" d="
		M527.3,654.3c0,0-5.1-3.5,18.4-20.9c23.6-17.5,32.5-39.5,30.7-68.7c-1.8-29.2-6.1-64.2,2.1-76.7"/>
	<path fill="none" stroke="#772424" stroke-width="3" stroke-linecap="round" stroke-linejoin="round" stroke-miterlimit="10" d="
		M579.9,614.3c1.7-4.2,3-9,3.7-14.5"/>
	<path fill="none" stroke="#772424" stroke-width="3" stroke-linecap="round" stroke-linejoin="round" stroke-miterlimit="10" d="
		M547.5,654.1c0,0-4.3-4.6,9.6-14.3c7.4-5.1,13.6-10.4,18.2-17.2"/>
	<path fill="none" stroke="#772424" stroke-width="3" stroke-linecap="round" stroke-linejoin="round" stroke-miterlimit="10" d="
		M654.5,350.2c0,0-3.8,7.1-6.4,19.7"/>
	<path fill="none" stroke="#772424" stroke-width="3" stroke-linecap="round" stroke-linejoin="round" stroke-miterlimit="10" d="
		M637.1,354.9c0,0-7.9,17-2.1,43.8"/>
	<path fill="none" stroke="#772424" stroke-width="3" stroke-linecap="round" stroke-linejoin="round" stroke-miterlimit="10" d="
		M626.4,447.6c1.7,4.8,3.7,9.5,6.3,14"/>
	<path fill="none" stroke="#772424" stroke-width="3" stroke-linecap="round" stroke-linejoin="round" stroke-miterlimit="10" d="
		M627.7,359.5c0,0-14.1,40.5-3.7,80.2"/>
	<path fill="none" stroke="#772424" stroke-width="3" stroke-linecap="round" stroke-linejoin="round" stroke-miterlimit="10" d="
		M617.9,361.8c0,0-12,21.3-5.3,52.8"/>
	<path fill="none" stroke="#772424" stroke-width="3" stroke-linecap="round" stroke-linejoin="round" stroke-miterlimit="10" d="
		M679.6,359.5c0.6-0.1,25.6,18.1,49.9-1"/>
	<path fill="none" stroke="#772424" stroke-width="3" stroke-linecap="round" stroke-linejoin="round" stroke-miterlimit="10" d="
		M682.5,352.8c0.6-0.1,22.6,15.9,44-0.9"/>
	<path fill="none" stroke="#772424" stroke-width="3" stroke-linecap="round" stroke-linejoin="round" stroke-miterlimit="10" d="
		M817.5,502.8c3-1.2,5-2.9,6.8-5.5"/>
	<path fill="none" stroke="#772424" stroke-width="3" stroke-linecap="round" stroke-linejoin="round" stroke-miterlimit="10" d="
		M772.7,523.5c0,0,4.5-12.7,23.1-16c6.2-1.1,11-1.9,14.7-2.7"/>
	<path fill="none" stroke="#772424" stroke-width="3" stroke-linecap="round" stroke-linejoin="round" stroke-miterlimit="10" d="
		M779.3,474.1c0,0,0.7-17.8,12.4-37.4c11.7-19.6,16.4-33.3,14.5-48.6"/>
	<path fill="none" stroke="#772424" stroke-width="3" stroke-linecap="round" stroke-linejoin="round" stroke-miterlimit="10" d="
		M780.9,502.8c0,0,0.5-3.3,18.1-14.7c17.6-11.4,19.6-18.6,21.9-26.4"/>
	<path fill="none" stroke="#772424" stroke-width="3" stroke-linecap="round" stroke-linejoin="round" stroke-miterlimit="10" d="
		M772.7,528c0,0,30.2-6.1,37.8,16c7.5,22.2,14.8,44.4,27.3,43.9"/>
	<path fill="none" stroke="#772424" stroke-width="3" stroke-linecap="round" stroke-linejoin="round" stroke-miterlimit="10" d="
		M802.6,597.7c0,0-7.9-1.3-11-21c-3.1-19.7-1.6-21.6-10.7-30.6"/>
	<path fill="none" stroke="#772424" stroke-width="3" stroke-linecap="round" stroke-linejoin="round" stroke-miterlimit="10" d="
		M817.5,597.2c0,0-7.4-3.4-7-16.8"/>
	<path fill="none" stroke="#772424" stroke-width="3" stroke-linecap="round" stroke-linejoin="round" stroke-miterlimit="10" d="
		M851.8,587.4c0,0-17.6-8.9-22.3-22.7c-4.8-13.8-7.3-27.3-22.9-36.7s-35.4-2.4-35.4-2.4"/>
	<path fill="#FBB61D" stroke="#772626" stroke-width="3" stroke-linejoin="round" stroke-miterlimit="10" d="M733.6,626.8
		c0,0,32.5-20.8,55.7-24.7c23.2-3.9,34.3-5.7,38.6-8.2c4.3-2.5,9.6-1.4,15.4,0c5.7,1.4,17,3.3,19.4-4c2.4-7.4-8.9-13.6-26.2-11.8
		c0,0-6.8-6.3-21.4-5.6s-24.6,5.6-24.6,5.6s-13.9-5.7-26.4-5.6c-12.5,0.1-19.6,2.6-19.6,2.6S731.9,599.3,733.6,626.8z"/>
</g>
<g>
	<path fill="#FBB61D" stroke="#772626" stroke-width="3" stroke-linejoin="round" stroke-miterlimit="10" d="M758.8,815.4
		c-71.8-2.5-252.9-8.2-252.9-8.2l-26.7-0.5v23.9c-0.7,0.6-1,1.1-1,1.7c0,9.3,96.7,16.9,216,16.9c119.3,0,216-7.6,216-16.9v-28.8
		C910.1,803.5,830.6,817.8,758.8,815.4z"/>
	<path fill="#F47923" stroke="#772424" stroke-width="3" stroke-linejoin="round" stroke-miterlimit="10" d="M910.1,805
		c0,9.3-96.7,16.9-216,16.9c-119.3,0-216-7.6-216-16.9c0-2.9,9.3-5.6,25.7-8c36.5-5.3,108-8.9,190.4-8.9
		C813.4,788.1,910.1,795.7,910.1,805z"/>
	<path fill="#F47923" stroke="#772424" stroke-width="3" stroke-linejoin="round" stroke-miterlimit="10" d="M921,716.1
		c0,0-0.4-3.8-11.9,0c-11.5,3.8-11.9,13.4-21.4,6.5s-18.7-10.3-26.4-4.6c-7.6,5.7-9.9,12.2-22.6,6.9c-12.6-5.4-15.6-9.6-26.7-4.6
		c-11.1,5-18.4,13.4-28.7,6.5c-10.3-6.9-17.2-12.2-26.8-9.2c-9.6,3.1-21.8,12.6-31.4,7.7c-9.6-5-10.3-14.5-22.9-9.2
		c-12.6-5.4-13.4,4.2-22.9,9.2c-9.6,5-21.8-4.6-31.4-7.7c-9.6-3.1-16.4,2.3-26.8,9.2c-10.3,6.9-17.6-1.5-28.7-6.5
		c-11.1-5-14.1-0.8-26.7,4.6c-12.6,5.4-14.9-1.1-22.6-6.9c-7.6-5.7-16.8-2.3-26.4,4.6c-9.6,6.9-9.9-2.7-21.4-6.5
		c-11.5-3.8-11.9,0-11.9,0s-4.2,31.4,6.1,50.5c10.3,19.1,22.9,25.6,22.9,25.6s0,7.3,47.4,11.5s142.3,3.4,142.3,3.4
		s94.9,0.8,142.3-3.4c47.4-4.2,47.4-11.5,47.4-11.5s12.6-6.5,22.9-25.6C925.2,747.5,921,716.1,921,716.1z"/>
	<path fill="none" stroke="#772424" stroke-width="3" stroke-linecap="round" stroke-linejoin="round" stroke-miterlimit="10" d="
		M566.8,801.9c0,0-22.7-51.8-59.4-78.1"/>
	<path fill="none" stroke="#772424" stroke-width="3" stroke-linecap="round" stroke-linejoin="round" stroke-miterlimit="10" d="
		M571.1,722.5c0,0-20.1,11.1-18.1,41.6c2,30.4,26.1,41,26.1,41"/>
	<path fill="none" stroke="#772424" stroke-width="3" stroke-linecap="round" stroke-linejoin="round" stroke-miterlimit="10" d="
		M608.2,728.4c0,0,18.8,8,34,34.4c15.2,26.4,13.8,44.2,13.8,44.2"/>
	<path fill="none" stroke="#772424" stroke-width="3" stroke-linecap="round" stroke-linejoin="round" stroke-miterlimit="10" d="
		M679.3,725.3c0,0-17.2,13.8-23.3,38.5c-6.1,24.7,19.2,43.5,19.2,43.5"/>
	<path fill="none" stroke="#772424" stroke-width="3" stroke-linecap="round" stroke-linejoin="round" stroke-miterlimit="10" d="
		M679.3,807.1c0,0-13.9-7.5-13.3-35c0.6-27.5,24.6-52.5,34.4-56.7"/>
	<path fill="none" stroke="#772424" stroke-width="3" stroke-linecap="round" stroke-linejoin="round" stroke-miterlimit="10" d="
		M702.3,718.4c0,0-14.5,13.5-22.9,37.9c-8.4,24.4,0.5,48.5,8.2,50.9"/>
	<path fill="none" stroke="#772424" stroke-width="3" stroke-linecap="round" stroke-linejoin="round" stroke-miterlimit="10" d="
		M702.3,730.5c0,0-11.6,14.6-13.2,39.6c-1.5,25,8.8,37.2,8.8,37.2"/>
	<path fill="none" stroke="#772424" stroke-width="3" stroke-linecap="round" stroke-linejoin="round" stroke-miterlimit="10" d="
		M585.1,720.4c0,0,31.4,14.9,47,43.3s13.6,43.3,13.6,43.3"/>
	<path fill="none" stroke="#772424" stroke-width="3" stroke-linecap="round" stroke-linejoin="round" stroke-miterlimit="10" d="
		M585.1,723.8c0,0,20.4,11.5,31.8,39c11.5,27.6,11.8,43.9,11.8,43.9"/>
	<path fill="none" stroke="#772424" stroke-width="3" stroke-linecap="round" stroke-linejoin="round" stroke-miterlimit="10" d="
		M586.5,730.5c0,0,32.4,47.9,26.4,75.9"/>
	<path fill="none" stroke="#772424" stroke-width="3" stroke-linecap="round" stroke-linejoin="round" stroke-miterlimit="10" d="
		M585.1,728.4c0,0-8.6,50.5,16.9,77.9"/>
	<path fill="none" stroke="#772424" stroke-width="3" stroke-linecap="round" stroke-linejoin="round" stroke-miterlimit="10" d="
		M581.7,723.8c0,0-24.1,46.4,8.6,81.8"/>
	<path fill="none" stroke="#772424" stroke-width="3" stroke-linecap="round" stroke-linejoin="round" stroke-miterlimit="10" d="
		M579,722.5c0,0-42,37.8,4.7,82.6"/>
	<path fill="none" stroke="#772424" stroke-width="3" stroke-linecap="round" stroke-linejoin="round" stroke-miterlimit="10" d="
		M485.3,718.4c0,0,57.7,35,66,83.5"/>
	<path fill="none" stroke="#772424" stroke-width="3" stroke-linecap="round" stroke-linejoin="round" stroke-miterlimit="10" d="
		M488.2,725.3c0,0,47,35.4,48.9,75.6"/>
	<path fill="none" stroke="#772424" stroke-width="3" stroke-linecap="round" stroke-linejoin="round" stroke-miterlimit="10" d="
		M488.2,737.3c0,0,33,26.8,35.4,60.7"/>
	<path fill="none" stroke="#772424" stroke-width="3" stroke-linecap="round" stroke-linejoin="round" stroke-miterlimit="10" d="
		M837.7,801.9c0,0,22.7-51.8,59.4-78.1"/>
	<path fill="none" stroke="#772424" stroke-width="3" stroke-linecap="round" stroke-linejoin="round" stroke-miterlimit="10" d="
		M833.4,722.5c0,0,20.1,11.1,18.1,41.6c-2,30.4-26.1,41-26.1,41"/>
	<path fill="none" stroke="#772424" stroke-width="3" stroke-linecap="round" stroke-linejoin="round" stroke-miterlimit="10" d="
		M796.3,728.4c0,0-18.8,8-34,34.4c-15.2,26.4-13.8,44.2-13.8,44.2"/>
	<path fill="none" stroke="#772424" stroke-width="3" stroke-linecap="round" stroke-linejoin="round" stroke-miterlimit="10" d="
		M725.2,725.3c0,0,17.2,13.8,23.3,38.5c6.1,24.7-19.2,43.5-19.2,43.5"/>
	<path fill="none" stroke="#772424" stroke-width="3" stroke-linecap="round" stroke-linejoin="round" stroke-miterlimit="10" d="
		M725.2,807.1c0,0,13.9-7.5,13.3-35c-0.6-27.5-24.6-52.5-34.4-56.7"/>
	<path fill="none" stroke="#772424" stroke-width="3" stroke-linecap="round" stroke-linejoin="round" stroke-miterlimit="10" d="
		M702.3,718.4c0,0,14.5,13.5,22.9,37.9c8.4,24.4-0.5,48.5-8.2,50.9"/>
	<path fill="none" stroke="#772424" stroke-width="3" stroke-linecap="round" stroke-linejoin="round" stroke-miterlimit="10" d="
		M702.3,730.5c0,0,11.6,14.6,13.2,39.6c1.5,25-8.8,37.2-8.8,37.2"/>
	<path fill="none" stroke="#772424" stroke-width="3" stroke-linecap="round" stroke-linejoin="round" stroke-miterlimit="10" d="
		M819.4,720.4c0,0-31.4,14.9-47,43.3s-13.6,43.3-13.6,43.3"/>
	<path fill="none" stroke="#772424" stroke-width="3" stroke-linecap="round" stroke-linejoin="round" stroke-miterlimit="10" d="
		M819.4,723.8c0,0-20.4,11.5-31.8,39c-11.5,27.6-11.8,43.9-11.8,43.9"/>
	<path fill="none" stroke="#772424" stroke-width="3" stroke-linecap="round" stroke-linejoin="round" stroke-miterlimit="10" d="
		M818,730.5c0,0-32.4,47.9-26.4,75.9"/>
	<path fill="none" stroke="#772424" stroke-width="3" stroke-linecap="round" stroke-linejoin="round" stroke-miterlimit="10" d="
		M819.4,728.4c0,0,8.6,50.5-16.9,77.9"/>
	<path fill="none" stroke="#772424" stroke-width="3" stroke-linecap="round" stroke-linejoin="round" stroke-miterlimit="10" d="
		M822.8,723.8c0,0,24.1,46.4-8.6,81.8"/>
	<path fill="none" stroke="#772424" stroke-width="3" stroke-linecap="round" stroke-linejoin="round" stroke-miterlimit="10" d="
		M825.5,722.5c0,0,42,37.8-4.7,82.6"/>
	<path fill="none" stroke="#772424" stroke-width="3" stroke-linecap="round" stroke-linejoin="round" stroke-miterlimit="10" d="
		M919.2,718.4c0,0-57.7,35-66,83.5"/>
	<path fill="none" stroke="#772424" stroke-width="3" stroke-linecap="round" stroke-linejoin="round" stroke-miterlimit="10" d="
		M916.4,725.3c0,0-47,35.4-48.9,75.6"/>
	<path fill="none" stroke="#772424" stroke-width="3" stroke-linecap="round" stroke-linejoin="round" stroke-miterlimit="10" d="
		M916.4,737.3c0,0-33,26.8-35.4,60.7"/>
</g>
<path fill="#FCAF1D" stroke="#772424" stroke-width="3" stroke-linejoin="round" stroke-miterlimit="10" d="M315,500
	c0,4.1-3.3,7.4-7.4,7.4h-72.9c-4.1,0-7.4-3.3-7.4-7.4l0,0c0-4.1,3.3-7.4,7.4-7.4h72.9C311.7,492.7,315,496,315,500L315,500z"/>
<path fill="#FCAF1D" stroke="#772424" stroke-width="3" stroke-linejoin="round" stroke-miterlimit="10" d="M1167.1,535.9
	c0,4.1-3.3,7.4-7.4,7.4h-72.9c-4.1,0-7.4-3.3-7.4-7.4l0,0c0-4.1,3.3-7.4,7.4-7.4h72.9C1163.8,528.5,1167.1,531.8,1167.1,535.9
	L1167.1,535.9z"/>
<path fill="#FCAF1D" stroke="#772424" stroke-width="3" stroke-linejoin="round" stroke-miterlimit="10" d="M446.7,472.8
	c0,5.2-4.2,9.4-9.4,9.4h-73.1c-5.2,0-9.4-4.2-9.4-9.4l0,0c0-5.2,4.2-9.4,9.4-9.4h73.1C442.5,463.4,446.7,467.6,446.7,472.8
	L446.7,472.8z"/>
<path fill="#FCAF1D" stroke="#772424" stroke-width="3" stroke-linejoin="round" stroke-miterlimit="10" d="M1050.3,449.4
	c0,4.4-3.6,8-8,8h-50.9c-4.4,0-8-3.6-8-8l0,0c0-4.4,3.6-8,8-8h50.9C1046.7,441.3,1050.3,444.9,1050.3,449.4L1050.3,449.4z"/>
<path fill="#FCAF1D" stroke="#772424" stroke-width="3" stroke-linejoin="round" stroke-miterlimit="10" d="M1117.8,484.3
	c0,4.1-3.3,7.4-7.4,7.4h-12.8c-4.1,0-7.4-3.3-7.4-7.4l0,0c0-4.1,3.3-7.4,7.4-7.4h12.8C1114.5,476.9,1117.8,480.2,1117.8,484.3
	L1117.8,484.3z"/>
<path fill="#FCAF1D" stroke="#772424" stroke-width="3" stroke-linejoin="round" stroke-miterlimit="10" d="M1012.5,509.1
	c0,2.5-2,4.6-4.6,4.6h-29.9c-2.5,0-4.6-2-4.6-4.6l0,0c0-2.5,2-4.6,4.6-4.6h29.9C1010.5,504.5,1012.5,506.6,1012.5,509.1
	L1012.5,509.1z"/>
<path fill="#FCAF1D" stroke="#772424" stroke-width="3" stroke-linejoin="round" stroke-miterlimit="10" d="M334.5,580.4
	c0,2.5-2,4.6-4.6,4.6h-29.9c-2.5,0-4.6-2-4.6-4.6l0,0c0-2.5,2-4.6,4.6-4.6H330C332.5,575.8,334.5,577.8,334.5,580.4L334.5,580.4z"/>
<path fill="#FCAF1D" stroke="#772424" stroke-width="3" stroke-linejoin="round" stroke-miterlimit="10" d="M221.1,559.1
	c0,2.8-2.3,5.1-5.1,5.1h-22.1c-2.8,0-5.1-2.3-5.1-5.1l0,0c0-2.8,2.3-5.1,5.1-5.1H216C218.8,554,221.1,556.3,221.1,559.1L221.1,559.1
	z"/>
<path fill="#FCAF1D" stroke="#772424" stroke-width="3" stroke-linejoin="round" stroke-miterlimit="10" d="M380.4,535.9
	c0,3.2-2.6,5.9-5.9,5.9h-31.4c-3.2,0-5.9-2.6-5.9-5.9l0,0c0-3.2,2.6-5.9,5.9-5.9h31.4C377.8,530,380.4,532.7,380.4,535.9
	L380.4,535.9z"/>
<path fill="#FCAF1D" stroke="#772424" stroke-width="3" stroke-linejoin="round" stroke-miterlimit="10" d="M1028.6,588.8
	c0,2.4-1.9,4.3-4.3,4.3h-26.8c-2.4,0-4.3-1.9-4.3-4.3l0,0c0-2.4,1.9-4.3,4.3-4.3h26.8C1026.6,584.5,1028.6,586.4,1028.6,588.8
	L1028.6,588.8z"/>
<g>
	
		<circle fill="#FCAF1D" stroke="#772424" stroke-width="3" stroke-linejoin="round" stroke-miterlimit="10" cx="1119.1" cy="170.2" r="76.6"/>
	<polygon fill="#FCAF1D" stroke="#772424" stroke-width="3" stroke-linejoin="round" stroke-miterlimit="10" points="1112.3,88.2 
		1126.8,88.2 1119.1,62 	"/>
	<polygon fill="#FCAF1D" stroke="#772424" stroke-width="3" stroke-linejoin="round" stroke-miterlimit="10" points="1139.4,90.5 
		1153.1,95.2 1154.4,68 	"/>
	<polygon fill="#FCAF1D" stroke="#772424" stroke-width="3" stroke-linejoin="round" stroke-miterlimit="10" points="1164.3,101.5 
		1175.7,110.4 1185.8,85.1 	"/>
	<polygon fill="#FCAF1D" stroke="#772424" stroke-width="3" stroke-linejoin="round" stroke-miterlimit="10" points="1184.2,120 
		1192.1,132.1 1209.9,111.5 	"/>
	<polygon fill="#FCAF1D" stroke="#772424" stroke-width="3" stroke-linejoin="round" stroke-miterlimit="10" points="1197,144 
		1200.5,158 1224.1,144.4 	"/>
	<polygon fill="#FCAF1D" stroke="#772424" stroke-width="3" stroke-linejoin="round" stroke-miterlimit="10" points="1201.3,170.9 
		1200,185.3 1226.8,180 	"/>
	<polygon fill="#FCAF1D" stroke="#772424" stroke-width="3" stroke-linejoin="round" stroke-miterlimit="10" points="1196.6,197.7 
		1190.6,210.8 1217.7,214.6 	"/>
	<polygon fill="#FCAF1D" stroke="#772424" stroke-width="3" stroke-linejoin="round" stroke-miterlimit="10" points="1183.3,221.4 
		1173.4,232 1197.7,244.4 	"/>
	<polygon fill="#FCAF1D" stroke="#772424" stroke-width="3" stroke-linejoin="round" stroke-miterlimit="10" points="1163.1,239.6 
		1150.3,246.3 1169.2,266 	"/>
	<polygon fill="#FCAF1D" stroke="#772424" stroke-width="3" stroke-linejoin="round" stroke-miterlimit="10" points="1138,250.2 
		1123.7,252.3 1135.2,277.1 	"/>
	<polygon fill="#FCAF1D" stroke="#772424" stroke-width="3" stroke-linejoin="round" stroke-miterlimit="10" points="1110.9,251.9 
		1096.7,249.3 1099.4,276.5 	"/>
	<polygon fill="#FCAF1D" stroke="#772424" stroke-width="3" stroke-linejoin="round" stroke-miterlimit="10" points="1084.6,244.8 
		1072.1,237.6 1065.8,264.2 	"/>
	<polygon fill="#FCAF1D" stroke="#772424" stroke-width="3" stroke-linejoin="round" stroke-miterlimit="10" points="1062.2,229.4 
		1052.6,218.6 1038,241.7 	"/>
	<polygon fill="#FCAF1D" stroke="#772424" stroke-width="3" stroke-linejoin="round" stroke-miterlimit="10" points="1045.9,207.6 
		1040.4,194.2 1019.1,211.3 	"/>
	<polygon fill="#FCAF1D" stroke="#772424" stroke-width="3" stroke-linejoin="round" stroke-miterlimit="10" points="1037.7,181.7 
		1036.9,167.2 1011.2,176.4 	"/>
	<polygon fill="#FCAF1D" stroke="#772424" stroke-width="3" stroke-linejoin="round" stroke-miterlimit="10" points="1038.4,154.5 
		1042.3,140.6 1015,140.8 	"/>
	<polygon fill="#FCAF1D" stroke="#772424" stroke-width="3" stroke-linejoin="round" stroke-miterlimit="10" points="1048,129 
		1056.2,117.1 1030.3,108.5 	"/>
	<polygon fill="#FCAF1D" stroke="#772424" stroke-width="3" stroke-linejoin="round" stroke-miterlimit="10" points="1065.3,108 
		1076.9,99.5 1055.3,82.9 	"/>
	<polygon fill="#FCAF1D" stroke="#772424" stroke-width="3" stroke-linejoin="round" stroke-miterlimit="10" points="1088.5,93.9 
		1102.3,89.6 1087.3,66.8 	"/>
</g>
<g>
	<path fill="#FFF9EF" stroke="#772424" stroke-width="3" stroke-linejoin="round" stroke-miterlimit="10" d="M481.6,268.6H363.2
		c0,0,4.9-9.3,21.5-8.9c0,0,5.9-10.9,17.1-11.9c11.2-1,17.3,4.4,17.3,4.4s-1.6-13.3,13-17c14.6-3.7,23.4,10.6,23.4,16.7
		c0,0,10.6-0.8,10.6,4.9C466.1,256.8,480.4,255.7,481.6,268.6z"/>
	<path fill="#FFF9EF" stroke="#772424" stroke-width="3" stroke-linejoin="round" stroke-miterlimit="10" d="M481.6,268.6H363.2
		c0,0,4.9-9.3,21.5-8.9c0,0,5.9-10.9,17.1-11.9c11.2-1,17.3,4.4,17.3,4.4s-1.6-13.3,13-17c14.6-3.7,23.4,10.6,23.4,16.7
		c0,0,10.6-0.8,10.6,4.9C466.1,256.8,480.4,255.7,481.6,268.6z"/>
</g>
<g>
	<path fill="#FFF9EF" stroke="#772424" stroke-width="3" stroke-linejoin="round" stroke-miterlimit="10" d="M1151.1,351.2h-118.4
		c0,0,4.9-9.3,21.5-8.9c0,0,5.9-10.9,17.1-11.9c11.2-1,17.3,4.4,17.3,4.4s-1.6-13.3,13-17s23.4,10.6,23.4,16.7
		c0,0,10.6-0.8,10.6,4.9C1135.6,339.3,1149.9,338.2,1151.1,351.2z"/>
	<path fill="#FFF9EF" stroke="#772424" stroke-width="3" stroke-linejoin="round" stroke-miterlimit="10" d="M1151.1,351.2h-118.4
		c0,0,4.9-9.3,21.5-8.9c0,0,5.9-10.9,17.1-11.9c11.2-1,17.3,4.4,17.3,4.4s-1.6-13.3,13-17s23.4,10.6,23.4,16.7
		c0,0,10.6-0.8,10.6,4.9C1135.6,339.3,1149.9,338.2,1151.1,351.2z"/>
</g>
<g>
	<path fill="#FFF9EF" stroke="#772424" stroke-width="3" stroke-linejoin="round" stroke-miterlimit="10" d="M341.4,352.1H223
		c0,0,4.9-9.3,21.5-8.9c0,0,5.9-10.9,17.1-11.9c11.2-1,17.3,4.4,17.3,4.4s-1.6-13.3,13-17c14.6-3.7,23.4,10.6,23.4,16.7
		c0,0,10.6-0.8,10.6,4.9C325.9,340.2,340.2,339.1,341.4,352.1z"/>
	<path fill="#FFF9EF" stroke="#772424" stroke-width="3" stroke-linejoin="round" stroke-miterlimit="10" d="M341.4,352.1H223
		c0,0,4.9-9.3,21.5-8.9c0,0,5.9-10.9,17.1-11.9c11.2-1,17.3,4.4,17.3,4.4s-1.6-13.3,13-17c14.6-3.7,23.4,10.6,23.4,16.7
		c0,0,10.6-0.8,10.6,4.9C325.9,340.2,340.2,339.1,341.4,352.1z"/>
</g>
<g>
	<path fill="#FFF9EF" stroke="#772424" stroke-width="3" stroke-linejoin="round" stroke-miterlimit="10" d="M912.4,286.9H794.1
		c0,0,4.9-9.3,21.5-8.9c0,0,5.9-10.9,17.1-11.9s17.3,4.4,17.3,4.4s-1.6-13.3,13-17c14.6-3.7,23.4,10.6,23.4,16.7
		c0,0,10.6-0.8,10.6,4.9C896.9,275.1,911.2,274,912.4,286.9z"/>
	<path fill="#FFF9EF" stroke="#772424" stroke-width="3" stroke-linejoin="round" stroke-miterlimit="10" d="M912.4,286.9H794.1
		c0,0,4.9-9.3,21.5-8.9c0,0,5.9-10.9,17.1-11.9s17.3,4.4,17.3,4.4s-1.6-13.3,13-17c14.6-3.7,23.4,10.6,23.4,16.7
		c0,0,10.6-0.8,10.6,4.9C896.9,275.1,911.2,274,912.4,286.9z"/>
</g>
<g>
	<path fill="#FFF9EF" stroke="#772424" stroke-width="3" stroke-linejoin="round" stroke-miterlimit="10" d="M989.4,214.3h89.8
		c0,0,0.5-21.4-14.9-22.3c-15.4-0.9-24.2,9.3-24.2,9.3s-1.3-7.8-8.7-9.3c-7.4-1.4-11.8,4.4-11.8,4.4s-6.9-3.8-14.7-2.2
		c-7.8,1.7-9.1,13.3-9.1,13.3S987.1,204.9,989.4,214.3z"/>
	<path fill="#FFF9EF" stroke="#772424" stroke-width="3" stroke-linejoin="round" stroke-miterlimit="10" d="M989.4,214.3h89.8
		c0,0,0.5-21.4-14.9-22.3c-15.4-0.9-24.2,9.3-24.2,9.3s-1.3-7.8-8.7-9.3c-7.4-1.4-11.8,4.4-11.8,4.4s-6.9-3.8-14.7-2.2
		c-7.8,1.7-9.1,13.3-9.1,13.3S987.1,204.9,989.4,214.3z"/>
</g>
</svg>
